<svg width="24" height="24" viewBox="0 0 24 24" fill="none" xmlns="http://www.w3.org/2000/svg">
<mask id="mask0_7704_6442" style="mask-type:alpha" maskUnits="userSpaceOnUse" x="0" y="0" width="24" height="24">
<rect width="24" height="24" fill="#D9D9D9"/>
</mask>
<g mask="url(#mask0_7704_6442)">
<path d="M5.11529 20.4998C4.61818 20.4998 4.19262 20.3228 3.83862 19.9688C3.48462 19.6148 3.30762 19.1892 3.30762 18.6921V5.30756C3.30762 4.81044 3.48462 4.38488 3.83862 4.03088C4.19262 3.67687 4.61818 3.49986 5.11529 3.49986H13.8076V4.99983H5.11529C5.02554 4.99983 4.95182 5.02868 4.89412 5.08638C4.83642 5.14408 4.80757 5.21781 4.80757 5.30756V18.6921C4.80757 18.7819 4.83642 18.8556 4.89412 18.9133C4.95182 18.971 5.02554 18.9998 5.11529 18.9998H18.4999C18.5896 18.9998 18.6633 18.971 18.721 18.9133C18.7787 18.8556 18.8076 18.7819 18.8076 18.6921V9.99983H20.3075V18.6921C20.3075 19.1892 20.1305 19.6148 19.7765 19.9688C19.4225 20.3228 18.997 20.4998 18.4999 20.4998H5.11529ZM17.1922 8.61518V6.61518H15.1922V5.11523H17.1922V3.11523H18.6922V5.11523H20.6922V6.61518H18.6922V8.61518H17.1922ZM6.55762 16.7498H17.1344L13.846 12.3652L11.0383 16.0191L9.03837 13.4614L6.55762 16.7498Z" fill="white"/>
</g>
</svg>
