<svg width="25" height="24" viewBox="0 0 25 24" fill="none" xmlns="http://www.w3.org/2000/svg">
<g clip-path="url(#clip0_8745_785)">
<path d="M12.875 19H6.875C6.07935 19 5.31629 18.6839 4.75368 18.1213C4.19107 17.5587 3.875 16.7956 3.875 16V8C3.875 7.20435 4.19107 6.44129 4.75368 5.87868C5.31629 5.31607 6.07935 5 6.875 5H18.875C19.6706 5 20.4337 5.31607 20.9963 5.87868C21.5589 6.44129 21.875 7.20435 21.875 8V12.5" stroke="white" stroke-width="1.5" stroke-linecap="round" stroke-linejoin="round"/>
<path d="M3.875 10H21.875" stroke="white" stroke-width="1.5" stroke-linecap="round" stroke-linejoin="round"/>
<path d="M7.875 15H7.885" stroke="white" stroke-width="1.5" stroke-linecap="round" stroke-linejoin="round"/>
<path d="M11.875 15H13.875" stroke="white" stroke-width="1.5" stroke-linecap="round" stroke-linejoin="round"/>
<path d="M16.875 19H22.875" stroke="white" stroke-width="1.5" stroke-linecap="round" stroke-linejoin="round"/>
<path d="M19.875 16L16.875 19L19.875 22" stroke="white" stroke-width="1.5" stroke-linecap="round" stroke-linejoin="round"/>
</g>
<defs>
<clipPath id="clip0_8745_785">
<rect width="24" height="24" fill="white" transform="translate(0.875)"/>
</clipPath>
</defs>
</svg>
