<svg width="18" height="20" viewBox="0 0 18 20" fill="none" xmlns="http://www.w3.org/2000/svg">
<path fill-rule="evenodd" clip-rule="evenodd" d="M8.11619 2.11612C8.35061 1.8817 8.66855 1.75 9.00007 1.75C9.33159 1.75 9.64953 1.8817 9.88395 2.11612C10.1184 2.35054 10.2501 2.66848 10.2501 3C10.2501 3.29002 10.4173 3.55405 10.6795 3.67802C11.7048 4.16287 12.5789 4.9176 13.2081 5.86132C13.8341 6.80031 14.1941 7.89117 14.2501 9.01809V12C14.2501 12.0301 14.2519 12.0602 14.2555 12.0901C14.3449 12.8284 14.6063 13.5354 15.0188 14.1542C15.0403 14.1864 15.0622 14.2183 15.0845 14.25H12.0001H6.00007H2.91569C2.93793 14.2183 2.9598 14.1864 2.98129 14.1542C3.39381 13.5354 3.65527 12.8284 3.74463 12.0901C3.74825 12.0602 3.75007 12.0301 3.75007 12V9.01809C3.80605 7.89117 4.16607 6.80031 4.79206 5.86132C5.41829 4.92198 6.2872 4.16987 7.30641 3.68479C7.34229 3.66871 7.37667 3.6499 7.4093 3.62862C7.50175 3.5686 7.57741 3.49051 7.63376 3.40135C7.71163 3.27814 7.75263 3.13381 7.75014 2.98684C7.75357 2.66008 7.88487 2.34743 8.11619 2.11612ZM5.25007 15.75H1.00007C0.65945 15.75 0.361605 15.5205 0.274821 15.1911C0.188036 14.8617 0.334108 14.5152 0.630504 14.3474C1.07327 14.0966 1.45097 13.7455 1.73322 13.3221C2.00753 12.9106 2.18422 12.4422 2.25007 11.9524V9C2.25007 8.98827 2.25034 8.97655 2.25089 8.96484C2.31684 7.55995 2.76383 6.19949 3.54398 5.02927C4.24375 3.97962 5.18789 3.11852 6.29256 2.51836C6.39049 1.96791 6.65478 1.45621 7.05553 1.05546C7.57125 0.539731 8.27072 0.25 9.00007 0.25C9.72941 0.25 10.4289 0.539731 10.9446 1.05546C11.3454 1.45621 11.6097 1.96791 11.7076 2.51836C12.8123 3.11853 13.7564 3.97962 14.4562 5.02927C15.2363 6.19949 15.6833 7.55995 15.7492 8.96484C15.7498 8.97655 15.7501 8.98827 15.7501 9V11.9524C15.8159 12.4422 15.9926 12.9106 16.2669 13.3221C16.5492 13.7455 16.9269 14.0966 17.3696 14.3474C17.666 14.5152 17.8121 14.8617 17.7253 15.1911C17.6385 15.5205 17.3407 15.75 17.0001 15.75H12.7501V16C12.7501 16.9946 12.355 17.9484 11.6517 18.6517C10.9485 19.3549 9.99463 19.75 9.00007 19.75C8.00551 19.75 7.05168 19.3549 6.34842 18.6517C5.64516 17.9484 5.25007 16.9946 5.25007 16V15.75ZM11.2501 15.75V16C11.2501 16.5967 11.013 17.169 10.5911 17.591C10.1691 18.0129 9.59681 18.25 9.00007 18.25C8.40333 18.25 7.83103 18.0129 7.40908 17.591C6.98712 17.169 6.75007 16.5967 6.75007 16V15.75H11.2501Z" fill="white"/>
</svg>
