<svg width="18" height="18" viewBox="0 0 18 18" fill="none" xmlns="http://www.w3.org/2000/svg">
<g clip-path="url(#clip0_7802_15611)">
<path d="M8.25 11.251V12.751H9.75V11.251H8.25Z" fill="#EC1D25"/>
<path d="M8.25 5.25098V9.75098H9.75V5.25098H8.25Z" fill="#EC1D25"/>
<path fill-rule="evenodd" clip-rule="evenodd" d="M9 1.50098C4.86 1.50098 1.5 4.86098 1.5 9.00098C1.5 13.141 4.86 16.501 9 16.501C13.14 16.501 16.5 13.141 16.5 9.00098C16.5 4.86098 13.14 1.50098 9 1.50098ZM15.0001 9.00024C15.0001 12.314 12.3138 15.0002 9.00009 15.0002C5.68638 15.0002 3.00009 12.314 3.00009 9.00024C3.00009 5.68654 5.68638 3.00024 9.00009 3.00024C12.3138 3.00024 15.0001 5.68654 15.0001 9.00024Z" fill="#EC1D25"/>
</g>
<defs>
<clipPath id="clip0_7802_15611">
<rect width="18" height="18" fill="white"/>
</clipPath>
</defs>
</svg>
