
<svg width="41" height="40" viewBox="0 0 41 40" fill="none" xmlns="http://www.w3.org/2000/svg">
<defs>
<linearGradient id="paint0_linear_8309_34994" x1="34.75" y1="33.9999" x2="6.75" y2="33.9999" gradientUnits="userSpaceOnUse">
<stop stop-color="#DB3B40"/>
<stop offset="1" stop-color="#ED8666"/>
</linearGradient>
</defs><rect x="0.75" width="40" height="40" rx="20" fill="#F25B60" fill-opacity="0.1"/>
<rect x="6.75" y="6" width="28" height="28" rx="14" fill="url(#paint0_linear_8309_34994)"/>

<path d="M25.7568 15.9007L21.7968 13.614C21.1501 13.2407 20.3501 13.2407 19.6968 13.614L15.7434 15.9007C15.0968 16.274 14.6968 16.9673 14.6968 17.7207V22.2807C14.6968 23.0273 15.0968 23.7207 15.7434 24.1007L19.7034 26.3873C20.3501 26.7607 21.1501 26.7607 21.8034 26.3873L25.7634 24.1007C26.4101 23.7273 26.8101 23.034 26.8101 22.2807V17.7207C26.8034 16.9673 26.4034 16.2807 25.7568 15.9007ZM20.2501 17.1673C20.2501 16.894 20.4768 16.6673 20.7501 16.6673C21.0234 16.6673 21.2501 16.894 21.2501 17.1673V20.6673C21.2501 20.9407 21.0234 21.1673 20.7501 21.1673C20.4768 21.1673 20.2501 20.9407 20.2501 20.6673V17.1673ZM21.3634 23.0873C21.3301 23.1673 21.2834 23.2407 21.2234 23.3073C21.0968 23.434 20.9301 23.5007 20.7501 23.5007C20.6634 23.5007 20.5768 23.4807 20.4968 23.4473C20.4101 23.414 20.3434 23.3673 20.2768 23.3073C20.2168 23.2407 20.1701 23.1673 20.1301 23.0873C20.0968 23.0073 20.0834 22.9207 20.0834 22.834C20.0834 22.6607 20.1501 22.4873 20.2768 22.3607C20.3434 22.3007 20.4101 22.254 20.4968 22.2207C20.7434 22.114 21.0368 22.174 21.2234 22.3607C21.2834 22.4273 21.3301 22.494 21.3634 22.5807C21.3968 22.6607 21.4168 22.7473 21.4168 22.834C21.4168 22.9207 21.3968 23.0073 21.3634 23.0873Z" fill="white"/>

</svg>
