<svg width="87" height="86" viewBox="0 0 87 86" fill="none" xmlns="http://www.w3.org/2000/svg">
<defs>
<filter id="filter0_d_8309_35063" x="0.5" y="0" width="86" height="86" filterUnits="userSpaceOnUse" color-interpolation-filters="sRGB">
<feFlood flood-opacity="0" result="BackgroundImageFix"/>
<feColorMatrix in="SourceAlpha" type="matrix" values="0 0 0 0 0 0 0 0 0 0 0 0 0 0 0 0 0 0 127 0" result="hardAlpha"/>
<feOffset/>
<feGaussianBlur stdDeviation="4"/>
<feComposite in2="hardAlpha" operator="out"/>
<feColorMatrix type="matrix" values="0 0 0 0 0 0 0 0 0 0.698039 0 0 0 0 1 0 0 0 0.5 0"/>
<feBlend mode="normal" in2="BackgroundImageFix" result="effect1_dropShadow_8309_35063"/>
<feBlend mode="normal" in="SourceGraphic" in2="effect1_dropShadow_8309_35063" result="shape"/>
</filter>
</defs>

<circle opacity="0.1" cx="43.5" cy="43" r="42" fill="#1658E4"/>
<g filter="url(#filter0_d_8309_35063)">
<circle cx="43.5" cy="43" r="35" fill="#1658E4"/>
</g>
<path fill-rule="evenodd" clip-rule="evenodd" d="M53.02 32.9137C53.09 33.0361 53.2125 33.1235 53.37 33.1235C57.57 33.1235 61 36.5497 61 40.745V51.1285C61 55.3238 57.57 58.75 53.37 58.75H33.63C29.4125 58.75 26 55.3238 26 51.1285V40.745C26 36.5497 29.4125 33.1235 33.63 33.1235C33.77 33.1235 33.91 33.0536 33.9625 32.9137L34.0675 32.7039C34.1278 32.577 34.1897 32.4466 34.2526 32.3142C34.7003 31.3712 35.1956 30.3279 35.5025 29.7148C36.3075 28.1415 37.6725 27.2675 39.37 27.25H47.6125C49.31 27.2675 50.6925 28.1415 51.4975 29.7148C51.7731 30.2654 52.193 31.1522 52.5977 32.007C52.6812 32.1835 52.7641 32.3586 52.845 32.5291L53.02 32.9137ZM51.7425 39.6262C51.7425 40.5003 52.4425 41.1995 53.3175 41.1995C54.1925 41.1995 54.91 40.5003 54.91 39.6262C54.91 38.7522 54.1925 38.0355 53.3175 38.0355C52.4425 38.0355 51.7425 38.7522 51.7425 39.6262ZM40.4725 42.3357C41.295 41.5142 42.3625 41.0771 43.5 41.0771C44.6375 41.0771 45.705 41.5142 46.51 42.3183C47.315 43.1224 47.7525 44.1887 47.7525 45.3249C47.735 47.6673 45.845 49.5727 43.5 49.5727C42.3625 49.5727 41.295 49.1357 40.49 48.3316C39.685 47.5275 39.2475 46.4612 39.2475 45.3249V45.3074C39.23 44.2062 39.6675 43.1398 40.4725 42.3357ZM48.3475 50.1845C47.105 51.4256 45.39 52.1948 43.5 52.1948C41.6625 52.1948 39.9475 51.4781 38.635 50.1845C37.34 48.8735 36.6225 47.1604 36.6225 45.3249C36.605 43.5069 37.3225 41.7938 38.6175 40.4828C39.93 39.1718 41.6625 38.455 43.5 38.455C45.3375 38.455 47.07 39.1718 48.365 40.4653C49.66 41.7764 50.3775 43.5069 50.3775 45.3249C50.36 47.2303 49.59 48.9434 48.3475 50.1845Z" fill="white"/>
</svg>
