<svg width="24" height="24" viewBox="0 0 24 24" fill="none" xmlns="http://www.w3.org/2000/svg">
<path d="M12.5 22.6298C11.83 22.6298 11.15 22.4798 10.62 22.1698L5.11999 18.9998C2.87999 17.4898 2.73999 17.2598 2.73999 14.8898V9.1098C2.73999 6.7398 2.86999 6.5098 5.06999 5.0198L10.61 1.8198C11.66 1.2098 13.31 1.2098 14.36 1.8198L19.88 4.9998C22.12 6.5098 22.26 6.7398 22.26 9.1098V14.8798C22.26 17.2498 22.13 17.4798 19.93 18.9698L14.39 22.1698C13.85 22.4798 13.17 22.6298 12.5 22.6298ZM12.5 2.8698C12.08 2.8698 11.67 2.9498 11.38 3.1198L5.87999 6.2998C4.24999 7.3998 4.24999 7.3998 4.24999 9.1098V14.8798C4.24999 16.5898 4.24999 16.5898 5.91999 17.7198L11.38 20.8698C11.97 21.2098 13.04 21.2098 13.63 20.8698L19.13 17.6898C20.75 16.5898 20.75 16.5898 20.75 14.8798V9.1098C20.75 7.3998 20.75 7.3998 19.08 6.2698L13.62 3.1198C13.33 2.9498 12.92 2.8698 12.5 2.8698Z" fill="#030E26" fill-opacity="0.4"/>
<path d="M12.5 15.75C10.43 15.75 8.75 14.07 8.75 12C8.75 9.93 10.43 8.25 12.5 8.25C14.57 8.25 16.25 9.93 16.25 12C16.25 14.07 14.57 15.75 12.5 15.75ZM12.5 9.75C11.26 9.75 10.25 10.76 10.25 12C10.25 13.24 11.26 14.25 12.5 14.25C13.74 14.25 14.75 13.24 14.75 12C14.75 10.76 13.74 9.75 12.5 9.75Z" fill="#030E26" fill-opacity="0.4"/>
</svg>
