<svg width="24" height="24" viewBox="0 0 24 24" fill="none" xmlns="http://www.w3.org/2000/svg">
<path d="M12.5 22.75C11.72 22.75 10.96 22.35 10.44 21.65L9.43 20.3C9.22 20.02 8.94 19.86 8.64 19.84C8.34 19.83 8.04 19.96 7.8 20.21L7.23 19.7L7.78 20.21C6.34 21.75 5.23 21.63 4.7 21.42C4.16 21.21 3.25 20.52 3.25 18.3V7.04C3.25 2.6 4.53 1.25 8.72 1.25H16.28C20.47 1.25 21.75 2.6 21.75 7.04V18.3C21.75 20.51 20.84 21.2 20.3 21.42C19.77 21.63 18.67 21.75 17.22 20.21C16.98 19.95 16.69 19.81 16.37 19.84C16.07 19.86 15.78 20.02 15.57 20.3L14.56 21.65C14.04 22.35 13.28 22.75 12.5 22.75ZM8.58 18.33C8.62 18.33 8.67 18.33 8.71 18.33C9.45 18.37 10.15 18.76 10.62 19.39L11.63 20.74C12.12 21.39 12.87 21.39 13.36 20.74L14.37 19.39C14.85 18.76 15.54 18.37 16.29 18.33C17.03 18.29 17.77 18.6 18.31 19.18C19.07 19.99 19.57 20.09 19.74 20.02C19.98 19.92 20.24 19.34 20.24 18.3V7.04C20.24 3.43 19.61 2.75 16.27 2.75H8.72C5.38 2.75 4.75 3.43 4.75 7.04V18.3C4.75 19.35 5.01 19.93 5.25 20.02C5.42 20.09 5.92 19.99 6.68 19.18C7.22 18.63 7.89 18.33 8.58 18.33Z" fill="#030E26" fill-opacity="0.4"/>
<path d="M16.5 7.75H8.5C8.09 7.75 7.75 7.41 7.75 7C7.75 6.59 8.09 6.25 8.5 6.25H16.5C16.91 6.25 17.25 6.59 17.25 7C17.25 7.41 16.91 7.75 16.5 7.75Z" fill="#030E26" fill-opacity="0.4"/>
<path d="M15.5 11.75H9.5C9.09 11.75 8.75 11.41 8.75 11C8.75 10.59 9.09 10.25 9.5 10.25H15.5C15.91 10.25 16.25 10.59 16.25 11C16.25 11.41 15.91 11.75 15.5 11.75Z" fill="#030E26" fill-opacity="0.4"/>
</svg>
