<svg width="25" height="24" viewBox="0 0 25 24" fill="none" xmlns="http://www.w3.org/2000/svg">
<path d="M19.4381 5.42043L14.2681 2.43043C13.2781 1.86043 11.7281 1.86043 10.7381 2.43043L5.51813 5.44043C3.44813 6.84043 3.32812 7.05043 3.32812 9.28043V14.7104C3.32812 16.9404 3.44813 17.1604 5.55813 18.5804L10.7281 21.5704C11.2281 21.8604 11.8681 22.0004 12.4981 22.0004C13.1281 22.0004 13.7681 21.8604 14.2581 21.5704L19.4781 18.5604C21.5481 17.1604 21.6681 16.9504 21.6681 14.7204V9.28043C21.6681 7.05043 21.5481 6.84043 19.4381 5.42043ZM12.4981 15.2504C10.7081 15.2504 9.24813 13.7904 9.24813 12.0004C9.24813 10.2104 10.7081 8.75043 12.4981 8.75043C14.2881 8.75043 15.7481 10.2104 15.7481 12.0004C15.7481 13.7904 14.2881 15.2504 12.4981 15.2504Z" fill="#1658E4"/>
</svg>
