<svg width="25" height="24" viewBox="0 0 25 24" fill="none" xmlns="http://www.w3.org/2000/svg">
<path d="M17.6897 4.96C17.6897 4.97 17.6897 4.97 17.6897 4.98C17.4397 4.97 17.1897 4.96 16.9197 4.96H9.21973L10.2897 3.9C11.2697 2.91 12.3497 2 13.5997 2C14.8597 2 15.9397 2.91 16.9197 3.9L17.4797 4.46C17.6197 4.59 17.6897 4.77 17.6897 4.96Z" fill="#1658E4"/>
<path d="M21.34 13.1692C21.73 13.1692 22.04 12.8492 22.04 12.4492V11.5692C22.04 7.63922 20.84 6.44922 16.92 6.44922H10.62H8.07996C4.15996 6.44922 2.95996 7.64922 2.95996 11.5692V11.9992C2.95996 12.3992 3.26996 12.7092 3.65996 12.7092C4.49996 12.7092 5.16996 13.3892 5.16996 14.2192C5.16996 15.0492 4.49996 15.7392 3.65996 15.7392C3.26996 15.7392 2.95996 16.0492 2.95996 16.4492V16.8792C2.95996 20.8092 4.15996 21.9992 8.07996 21.9992H10.61H16.91C20.83 21.9992 22.03 20.7992 22.03 16.8792C22.03 16.4892 21.72 16.1692 21.33 16.1692C20.49 16.1692 19.82 15.4992 19.82 14.6692C19.83 13.8392 20.5 13.1692 21.34 13.1692ZM11.32 18.8592C11.32 19.2492 11 19.5692 10.61 19.5692C10.22 19.5692 9.89996 19.2492 9.89996 18.8592V16.1792C9.89996 15.7892 10.22 15.4692 10.61 15.4692C11 15.4692 11.32 15.7892 11.32 16.1792V18.8592ZM11.32 12.2692C11.32 12.6592 11 12.9792 10.61 12.9792C10.22 12.9792 9.89996 12.6592 9.89996 12.2692V9.58922C9.89996 9.19922 10.22 8.87922 10.61 8.87922C11 8.87922 11.32 9.19922 11.32 9.58922V12.2692Z" fill="#1658E4"/>
</svg>
