<svg width="24" height="24" viewBox="0 0 25 24" fill="none" xmlns="http://www.w3.org/2000/svg">
<path d="M17.5 20.75H7.5C3.09 20.75 1.75 19.41 1.75 15V14.5C1.75 14.09 2.09 13.75 2.5 13.75C3.46 13.75 4.25 12.96 4.25 12C4.25 11.04 3.46 10.25 2.5 10.25C2.09 10.25 1.75 9.91 1.75 9.5V9C1.75 4.59 3.09 3.25 7.5 3.25H17.5C21.91 3.25 23.25 4.59 23.25 9V10C23.25 10.41 22.91 10.75 22.5 10.75C21.54 10.75 20.75 11.54 20.75 12.5C20.75 13.46 21.54 14.25 22.5 14.25C22.91 14.25 23.25 14.59 23.25 15C23.25 19.41 21.91 20.75 17.5 20.75ZM3.25 15.16C3.27 18.6 3.98 19.25 7.5 19.25H17.5C20.84 19.25 21.65 18.66 21.74 15.66C20.31 15.32 19.25 14.03 19.25 12.5C19.25 10.97 20.32 9.68 21.75 9.34V9C21.75 5.43 21.07 4.75 17.5 4.75H7.5C3.98 4.75 3.27 5.4 3.25 8.84C4.68 9.18 5.75 10.47 5.75 12C5.75 13.53 4.68 14.82 3.25 15.16Z" fill="#030E26" fill-opacity="0.4"/>
<path d="M15.5 15.8799C14.94 15.8799 14.49 15.4299 14.49 14.8799C14.49 14.3299 14.94 13.8799 15.49 13.8799C16.04 13.8799 16.49 14.3299 16.49 14.8799C16.49 15.4299 16.06 15.8799 15.5 15.8799Z" fill="#030E26" fill-opacity="0.4"/>
<path d="M9.49999 10.8799C8.93999 10.8799 8.48999 10.4299 8.48999 9.87988C8.48999 9.32988 8.93999 8.87988 9.48999 8.87988C10.04 8.87988 10.49 9.32988 10.49 9.87988C10.49 10.4299 10.06 10.8799 9.49999 10.8799Z" fill="#030E26" fill-opacity="0.4"/>
<path d="M9.13007 16.4296C8.94007 16.4296 8.75007 16.3596 8.60007 16.2096C8.31007 15.9196 8.31007 15.4396 8.60007 15.1496L15.3301 8.41965C15.6201 8.12965 16.1001 8.12965 16.3901 8.41965C16.6801 8.70965 16.6801 9.18965 16.3901 9.47965L9.66007 16.2096C9.52007 16.3596 9.32007 16.4296 9.13007 16.4296Z" fill="#030E26" fill-opacity="0.4"/>
</svg>
