<svg width="21" height="20" viewBox="0 0 21 20" fill="none" xmlns="http://www.w3.org/2000/svg">
<path fill-rule="evenodd" clip-rule="evenodd" d="M6.2679 0.25H6.3H6.5C6.91421 0.25 7.25 0.585787 7.25 1C7.25 1.41421 6.91421 1.75 6.5 1.75H6.3C5.44755 1.75 4.85331 1.75058 4.39068 1.78838C3.9368 1.82547 3.67604 1.8946 3.47852 1.99524C3.05516 2.21095 2.71095 2.55516 2.49524 2.97852C2.3946 3.17604 2.32547 3.4368 2.28838 3.89068C2.25058 4.35331 2.25 4.94755 2.25 5.8V6C2.25 6.41421 1.91421 6.75 1.5 6.75C1.08579 6.75 0.75 6.41421 0.75 6V5.8V5.7679C0.749993 4.95506 0.749987 4.29944 0.793364 3.76853C0.838026 3.2219 0.932385 2.74175 1.15873 2.29754C1.51825 1.59193 2.09193 1.01825 2.79754 0.658726C3.24175 0.432385 3.7219 0.338026 4.26853 0.293364C4.79944 0.249987 5.45506 0.249993 6.2679 0.25ZM16.6093 1.78838C16.1467 1.75058 15.5525 1.75 14.7 1.75H14.5C14.0858 1.75 13.75 1.41421 13.75 1C13.75 0.585787 14.0858 0.25 14.5 0.25H14.7H14.7321C15.5449 0.249993 16.2006 0.249987 16.7315 0.293364C17.2781 0.338026 17.7582 0.432385 18.2025 0.658726C18.9081 1.01825 19.4817 1.59193 19.8413 2.29754C20.0676 2.74175 20.162 3.2219 20.2066 3.76853C20.25 4.29944 20.25 4.95505 20.25 5.76788V5.8V6C20.25 6.41421 19.9142 6.75 19.5 6.75C19.0858 6.75 18.75 6.41421 18.75 6V5.8C18.75 4.94755 18.7494 4.35331 18.7116 3.89068C18.6745 3.4368 18.6054 3.17604 18.5048 2.97852C18.289 2.55516 17.9448 2.21095 17.5215 1.99524C17.324 1.8946 17.0632 1.82547 16.6093 1.78838ZM1.5 13.25C1.91421 13.25 2.25 13.5858 2.25 14V14.2C2.25 15.0525 2.25058 15.6467 2.28838 16.1093C2.32547 16.5632 2.3946 16.824 2.49524 17.0215C2.71095 17.4448 3.05516 17.789 3.47852 18.0048C3.67604 18.1054 3.9368 18.1745 4.39068 18.2116C4.85331 18.2494 5.44755 18.25 6.3 18.25H6.5C6.91421 18.25 7.25 18.5858 7.25 19C7.25 19.4142 6.91421 19.75 6.5 19.75H6.3H6.26788C5.45505 19.75 4.79944 19.75 4.26853 19.7066C3.7219 19.662 3.24175 19.5676 2.79754 19.3413C2.09193 18.9817 1.51825 18.4081 1.15873 17.7025C0.932385 17.2582 0.838026 16.7781 0.793364 16.2315C0.749987 15.7006 0.749993 15.0449 0.75 14.2321V14.2V14C0.75 13.5858 1.08579 13.25 1.5 13.25ZM19.5 13.25C19.9142 13.25 20.25 13.5858 20.25 14V14.2V14.2321C20.25 15.045 20.25 15.7006 20.2066 16.2315C20.162 16.7781 20.0676 17.2582 19.8413 17.7025C19.4817 18.4081 18.9081 18.9817 18.2025 19.3413C17.7582 19.5676 17.2781 19.662 16.7315 19.7066C16.2006 19.75 15.545 19.75 14.7321 19.75H14.7H14.5C14.0858 19.75 13.75 19.4142 13.75 19C13.75 18.5858 14.0858 18.25 14.5 18.25H14.7C15.5525 18.25 16.1467 18.2494 16.6093 18.2116C17.0632 18.1745 17.324 18.1054 17.5215 18.0048C17.9448 17.789 18.289 17.4448 18.5048 17.0215C18.6054 16.824 18.6745 16.5632 18.7116 16.1093C18.7494 15.6467 18.75 15.0525 18.75 14.2V14C18.75 13.5858 19.0858 13.25 19.5 13.25ZM10.5 5.25C10.9142 5.25 11.25 5.58579 11.25 6V10.0001C11.25 10.9665 10.4665 11.75 9.50009 11.75C9.08587 11.75 8.75009 11.4142 8.75009 11C8.75009 10.5858 9.08587 10.25 9.50009 10.25C9.63811 10.25 9.75 10.1381 9.75 10.0001V6C9.75 5.58579 10.0858 5.25 10.5 5.25ZM7.25 6C7.25 5.58579 6.91421 5.25 6.5 5.25C6.08579 5.25 5.75 5.58579 5.75 6V7.5C5.75 7.91421 6.08579 8.25 6.5 8.25C6.91421 8.25 7.25 7.91421 7.25 7.5V6ZM14.5 5.25C14.9142 5.25 15.25 5.58579 15.25 6V7.5C15.25 7.91421 14.9142 8.25 14.5 8.25C14.0858 8.25 13.75 7.91421 13.75 7.5V6C13.75 5.58579 14.0858 5.25 14.5 5.25ZM7.09967 12.5496C6.85091 12.2184 6.38076 12.1516 6.04957 12.4003C5.71838 12.6491 5.65156 13.1192 5.90033 13.4504C6.94809 14.8454 8.61869 15.75 10.5004 15.75C12.382 15.75 14.0526 14.8454 15.1004 13.4504C15.3492 13.1192 15.2824 12.6491 14.9512 12.4003C14.62 12.1516 14.1498 12.2184 13.9011 12.5496C13.1244 13.5835 11.8903 14.25 10.5004 14.25C9.1104 14.25 7.87632 13.5835 7.09967 12.5496Z" fill="white"/>
</svg>
